<svg width="24" height="24" viewBox="0 0 24 24" fill="none" xmlns="http://www.w3.org/2000/svg">
<g clip-path="url(#clip0_69_3468)">
<path d="M12.4382 23.8413C11.4087 23.8413 10.3726 23.7059 9.35148 23.4324C6.29376 22.6129 3.73815 20.6518 2.15542 17.9105C0.572688 15.1689 0.151978 11.9752 0.971532 8.91726C1.79082 5.85954 3.75185 3.30394 6.49345 1.72121C8.75927 0.412711 11.3273 -0.102573 13.9205 0.230412C14.2517 0.273089 14.5204 0.518877 14.5918 0.844749C14.6632 1.17088 14.522 1.5065 14.2393 1.6838C10.5662 3.98492 9.38731 8.72864 11.5554 12.4837C13.723 16.2385 18.4211 17.5894 22.2499 15.5588C22.5442 15.4018 22.9061 15.4479 23.1524 15.6731C23.399 15.8981 23.4778 16.2537 23.349 16.5617C22.3411 18.9737 20.6105 20.9403 18.3444 22.2483C16.5186 23.3025 14.4914 23.8413 12.4382 23.8413ZM11.6544 1.73912C10.1252 1.85003 8.64178 2.30551 7.28349 3.08976C4.90755 4.46148 3.20812 6.6762 2.49789 9.32638C1.78792 11.9763 2.15226 14.7445 3.52398 17.1204C4.8957 19.4964 7.11042 21.1961 9.76033 21.9058C12.41 22.6163 15.1785 22.2512 17.5541 20.8797C18.9124 20.0954 20.0489 19.0385 20.9095 17.7696C16.8139 18.8481 12.3997 17.107 10.1863 13.2737C7.9737 9.44071 8.67418 4.74678 11.6544 1.73912Z" fill="black"/>
</g>
<defs>
<clipPath id="clip0_69_3468">
<rect width="24" height="24" fill="white"/>
</clipPath>
</defs>
</svg>
