<svg width="24" height="24" viewBox="0 0 24 24" fill="none" xmlns="http://www.w3.org/2000/svg">
<path d="M11.9866 0.000104447C11.7598 0.00364983 11.5437 0.0970363 11.3857 0.259768C11.2276 0.4225 11.1406 0.641282 11.1437 0.868097V3.43695C11.1421 3.55042 11.1631 3.66308 11.2054 3.76837C11.2477 3.87367 11.3105 3.9695 11.3902 4.05031C11.4699 4.13112 11.5648 4.19529 11.6695 4.23908C11.7742 4.28288 11.8865 4.30543 12 4.30543C12.1135 4.30543 12.2258 4.28288 12.3305 4.23908C12.4352 4.19529 12.5301 4.13112 12.6098 4.05031C12.6895 3.9695 12.7523 3.87367 12.7946 3.76837C12.8369 3.66308 12.8579 3.55042 12.8563 3.43695V0.868097C12.8578 0.753535 12.8364 0.639823 12.7932 0.533695C12.7501 0.427566 12.686 0.33118 12.6049 0.250243C12.5239 0.169306 12.4273 0.105464 12.3211 0.0624978C12.2149 0.0195318 12.1012 -0.00168486 11.9866 0.000104447ZM4.11962 3.26469C3.94943 3.26507 3.7832 3.31615 3.64216 3.41143C3.50113 3.5067 3.39168 3.64184 3.32779 3.79959C3.2639 3.95735 3.24846 4.13056 3.28346 4.29713C3.31845 4.46369 3.40228 4.61605 3.52425 4.73476L5.34048 6.55102C5.41938 6.6332 5.51389 6.69881 5.61846 6.74401C5.72304 6.78921 5.83558 6.81308 5.9495 6.81424C6.06341 6.8154 6.17642 6.79382 6.28189 6.75075C6.38736 6.70769 6.48318 6.64402 6.56374 6.56346C6.6443 6.4829 6.70797 6.38708 6.75103 6.28161C6.79409 6.17613 6.81567 6.06313 6.81452 5.94921C6.81336 5.83529 6.78948 5.72274 6.74428 5.61817C6.69909 5.51359 6.63348 5.41908 6.5513 5.34018L4.73507 3.52392C4.65508 3.44169 4.55938 3.37637 4.45366 3.33184C4.34793 3.28731 4.23434 3.26448 4.11962 3.26469ZM19.8536 3.26469C19.6312 3.27132 19.42 3.3643 19.2649 3.52392L17.4487 5.34018C17.3665 5.41908 17.3009 5.51359 17.2557 5.61817C17.2105 5.72274 17.1866 5.83529 17.1855 5.94921C17.1843 6.06313 17.2059 6.17613 17.249 6.2816C17.292 6.38708 17.3557 6.4829 17.4363 6.56346C17.5168 6.64401 17.6126 6.70769 17.7181 6.75075C17.8236 6.79381 17.9366 6.8154 18.0505 6.81424C18.1644 6.81308 18.277 6.7892 18.3815 6.74401C18.4861 6.69881 18.5806 6.6332 18.6595 6.55102L20.4758 4.73476C20.5995 4.61448 20.684 4.45963 20.7182 4.2905C20.7524 4.12137 20.7348 3.94584 20.6675 3.78693C20.6002 3.62801 20.4866 3.49312 20.3413 3.39993C20.1961 3.30675 20.0261 3.25961 19.8536 3.26469ZM12 6.00581C10.4103 6.00581 8.88575 6.63732 7.76167 7.76141C6.6376 8.8855 6.0061 10.4101 6.0061 11.9998C6.0061 13.5895 6.6376 15.1141 7.76167 16.2382C8.88575 17.3623 10.4103 17.9938 12 17.9938C13.5897 17.9938 15.1143 17.3623 16.2383 16.2382C17.3624 15.1141 17.9939 13.5895 17.9939 11.9998C17.9939 10.4101 17.3624 8.8855 16.2383 7.76141C15.1143 6.63732 13.5897 6.00581 12 6.00581ZM0.868467 11.1435C0.755001 11.1419 0.642347 11.1629 0.537053 11.2052C0.431759 11.2475 0.335924 11.3103 0.255118 11.39C0.174312 11.4697 0.110146 11.5646 0.0663499 11.6693C0.0225535 11.774 0 11.8863 0 11.9998C0 12.1133 0.0225535 12.2256 0.0663499 12.3303C0.110146 12.435 0.174312 12.5299 0.255118 12.6096C0.335924 12.6893 0.431759 12.7521 0.537053 12.7944C0.642347 12.8367 0.755001 12.8577 0.868467 12.8561H3.43728C3.55075 12.8577 3.6634 12.8367 3.7687 12.7944C3.87399 12.7521 3.96983 12.6893 4.05063 12.6096C4.13144 12.5299 4.1956 12.435 4.2394 12.3303C4.2832 12.2256 4.30575 12.1133 4.30575 11.9998C4.30575 11.8863 4.2832 11.774 4.2394 11.6693C4.1956 11.5646 4.13144 11.4697 4.05063 11.39C3.96983 11.3103 3.87399 11.2475 3.7687 11.2052C3.6634 11.1629 3.55075 11.1419 3.43728 11.1435H0.868467ZM20.5627 11.1435C20.4493 11.1419 20.3366 11.1629 20.2313 11.2052C20.126 11.2475 20.0302 11.3103 19.9494 11.39C19.8686 11.4697 19.8044 11.5646 19.7606 11.6693C19.7168 11.774 19.6943 11.8863 19.6943 11.9998C19.6943 12.1133 19.7168 12.2256 19.7606 12.3303C19.8044 12.435 19.8686 12.5299 19.9494 12.6096C20.0302 12.6893 20.126 12.7521 20.2313 12.7944C20.3366 12.8367 20.4493 12.8577 20.5627 12.8561H23.1315C23.245 12.8577 23.3577 12.8367 23.4629 12.7944C23.5682 12.7521 23.6641 12.6893 23.7449 12.6096C23.8257 12.5299 23.8899 12.435 23.9337 12.3303C23.9774 12.2256 24 12.1133 24 11.9998C24 11.8863 23.9774 11.774 23.9337 11.6693C23.8899 11.5646 23.8257 11.4697 23.7449 11.39C23.6641 11.3103 23.5682 11.2475 23.4629 11.2052C23.3577 11.1629 23.245 11.1419 23.1315 11.1435H20.5627ZM5.92917 17.1894C5.70671 17.196 5.49557 17.289 5.34048 17.4486L3.52425 19.2649C3.44207 19.3438 3.37646 19.4383 3.33127 19.5428C3.28607 19.6474 3.26219 19.76 3.26104 19.8739C3.25988 19.9878 3.28146 20.1008 3.32452 20.2063C3.36758 20.3118 3.43126 20.4076 3.51181 20.4881C3.59237 20.5687 3.68819 20.6324 3.79366 20.6754C3.89913 20.7185 4.01214 20.7401 4.12605 20.7389C4.23997 20.7378 4.35251 20.7139 4.45709 20.6687C4.56166 20.6235 4.65617 20.5579 4.73507 20.4757L6.5513 18.6594C6.67504 18.5392 6.75955 18.3843 6.79376 18.2152C6.82798 18.046 6.8103 17.8705 6.74305 17.7116C6.6758 17.5527 6.56211 17.4178 6.41688 17.3246C6.27164 17.2314 6.10165 17.1843 5.92917 17.1894ZM18.0457 17.1894C17.8754 17.1894 17.7089 17.2403 17.5677 17.3354C17.4264 17.4305 17.3167 17.5657 17.2526 17.7235C17.1885 17.8813 17.1729 18.0547 17.2078 18.2214C17.2428 18.3881 17.3266 18.5406 17.4487 18.6594L19.2649 20.4757C19.3438 20.5579 19.4383 20.6235 19.5429 20.6687C19.6475 20.7139 19.76 20.7377 19.8739 20.7389C19.9879 20.7401 20.1009 20.7185 20.2063 20.6754C20.3118 20.6324 20.4076 20.5687 20.4882 20.4881C20.5687 20.4076 20.6324 20.3117 20.6755 20.2063C20.7185 20.1008 20.7401 19.9878 20.739 19.8739C20.7378 19.76 20.7139 19.6474 20.6687 19.5428C20.6235 19.4383 20.5579 19.3438 20.4758 19.2649L18.6595 17.4486C18.5797 17.3666 18.4843 17.3014 18.3789 17.2568C18.2735 17.2123 18.1602 17.1894 18.0457 17.1894ZM11.9866 19.6947C11.7598 19.6982 11.5437 19.7916 11.3857 19.9543C11.2276 20.1171 11.1406 20.3358 11.1437 20.5627V23.1315C11.1421 23.245 11.1631 23.3576 11.2054 23.4629C11.2477 23.5682 11.3105 23.6641 11.3902 23.7449C11.4699 23.8257 11.5648 23.8899 11.6695 23.9336C11.7742 23.9774 11.8865 24 12 24C12.1135 24 12.2258 23.9774 12.3305 23.9336C12.4352 23.8899 12.5301 23.8257 12.6098 23.7449C12.6895 23.6641 12.7523 23.5682 12.7946 23.4629C12.8369 23.3576 12.8579 23.245 12.8563 23.1315V20.5627C12.8578 20.4481 12.8364 20.3344 12.7932 20.2283C12.7501 20.1221 12.686 20.0257 12.6049 19.9448C12.5239 19.8639 12.4273 19.8 12.3211 19.7571C12.2149 19.7141 12.1012 19.6929 11.9866 19.6947Z" fill="black"/>
</svg>
